<?xml version="1.0" encoding="utf-8"?>
<!-- Generator: Adobe Illustrator 16.0.0, SVG Export Plug-In . SVG Version: 6.00 Build 0)  -->
<!DOCTYPE svg PUBLIC "-//W3C//DTD SVG 1.1//EN" "http://www.w3.org/Graphics/SVG/1.1/DTD/svg11.dtd">
<svg version="1.1" id="Layer_1" xmlns="http://www.w3.org/2000/svg" xmlns:xlink="http://www.w3.org/1999/xlink" x="0px" y="0px"
	 width="422.319px" height="65.861px" viewBox="0 0 422.319 65.861" enable-background="new 0 0 422.319 65.861"
	 xml:space="preserve">
<path fill="#FF0101" d="M18.167,53.515v11.25c0,0-1.083,0-3.667,0S0,62.931,0,49.597c0-13.332,13.167-15.666,15.417-15.666
	s15.5,0.917,15.5,16.084v14.332h-11.25c0,0,0-11.75,0-13.916s-1.167-4.834-4.208-4.834s-3.875,2.75-3.875,4.25
	s1.166,4.168,3.875,4.168S18.167,53.515,18.167,53.515z"/>
<path fill="#FF0101" d="M56.001,52.681v12.084c0,0-1,0-2.333,0s-15.083-0.834-15.083-18.584h-5.083V34.265h5.167v-18h11.917
	c0,0,0,31.083,0,32.333S51.501,52.681,56.001,52.681z"/>
<path fill="#FF0101" d="M73.918,34.014c-8.468,0-15.333,6.864-15.333,15.335c0,8.468,6.865,15.332,15.333,15.332
	s15.333-6.864,15.333-15.332C89.251,40.878,82.386,34.014,73.918,34.014z M73.918,53.681c-2.393,0-4.333-1.939-4.333-4.333
	s1.94-4.333,4.333-4.333s4.333,1.939,4.333,4.333S76.311,53.681,73.918,53.681z"/>
<path fill="#FF0101" d="M159.168,34.014c-8.468,0-15.333,6.864-15.333,15.335c0,8.468,6.865,15.332,15.333,15.332
	s15.333-6.864,15.333-15.332C174.501,40.878,167.636,34.014,159.168,34.014z M159.168,53.681c-2.393,0-4.333-1.939-4.333-4.333
	s1.94-4.333,4.333-4.333s4.333,1.939,4.333,4.333S161.561,53.681,159.168,53.681z"/>
<path fill="#FF0101" d="M225.293,34.014c-8.468,0-15.333,6.864-15.333,15.335c0,8.468,6.865,15.332,15.333,15.332
	s15.333-6.864,15.333-15.332C240.626,40.878,233.761,34.014,225.293,34.014z M225.293,53.681c-2.394,0-4.333-1.939-4.333-4.333
	s1.939-4.333,4.333-4.333s4.333,1.939,4.333,4.333S227.687,53.681,225.293,53.681z"/>
<path fill="#FF0101" d="M91.668,47.181c0-6.666,7.417-13.167,10.75-13.167c2.5,0,4.333,2.751,5.083,2.751s1.917-2.751,5.083-2.751
	s10.333,7.5,10.333,11.667s0,19.5,0,19.5h-8.75c0,0,0-18.084,0-19s-0.333-1-1.25-1s-1.25,0.75-1.25,2.25s0,17.75,0,17.75h-8.75
	c0,0,0-17.916,0-18.916s-0.699-1.25-1.167-1.25c-1.333,0-1.5,0.832-1.5,1.916s0,18.334,0,18.334h-8.583
	C91.668,65.265,91.668,52.014,91.668,47.181c0-6.666,6.5-13.167,10.75-13.167"/>
<path fill="#FF0101" d="M140.918,46.348v-12c0,0-2.083-0.334-3.333-0.334s-12.583,0.833-12.583,12.917s0,18.334,0,18.334h11.25
	c0,0,0-14.334,0-15.917s0.869-3.083,2.768-3.083S140.918,46.348,140.918,46.348z"/>
<path fill="#FF0101" d="M189.501,46.348V34.431c0,0,2.333,0,4,0s14,2.416,14,15.208s-13.083,15.042-15.75,15.042
	s-14.75-1.75-14.75-15.333s0-33.5,0-33.5h11.25c0,0,0,30.583,0,32.833s0.833,5.334,4,5.334s3.917-2.502,3.917-4.376
	s-2.083-4.041-3.333-4.041S189.501,46.348,189.501,46.348z"/>
<path fill="#FF0101" d="M254.918,46.181h5v-11.75h-5V16.348h-11.75c0,0,0,28.501,0,33s2.667,15.333,16.75,15.333v-12
	C259.918,52.681,254.918,53.931,254.918,46.181z"/>
<g>
	<path d="M269.944,16.318c-2.158,0-3.994-0.793-5.51-2.381c-1.514-1.588-2.271-3.507-2.271-5.757c0-2.277,0.762-4.21,2.285-5.798
		S267.8,0,269.931,0c2.141,0,3.975,0.796,5.503,2.389s2.292,3.509,2.292,5.75c0,2.269-0.758,4.199-2.272,5.791
		S272.103,16.318,269.944,16.318z M269.893,1.116c-1.821,0-3.373,0.692-4.655,2.075c-1.281,1.384-1.922,3.046-1.922,4.988
		c0,1.932,0.637,3.586,1.91,4.96c1.272,1.375,2.828,2.062,4.667,2.062c1.847,0,3.422-0.688,4.726-2.062
		c1.303-1.375,1.955-3.028,1.955-4.96c0-1.942-0.654-3.604-1.961-4.988C273.304,1.808,271.731,1.116,269.893,1.116z M272.313,13.229
		l-1.191-2.585c-0.346-0.78-0.68-1.304-1.003-1.572c-0.323-0.268-0.688-0.401-1.095-0.401h-0.906v4.559h-1.256V2.722h2.927
		c1.104,0,1.976,0.251,2.615,0.755c0.639,0.503,0.958,1.172,0.958,2.007c0,1.606-0.872,2.577-2.615,2.913v0.041
		c0.5,0.127,1.053,0.762,1.657,1.905l1.32,2.885H272.313z M268.118,3.811v3.756h1.709c0.674,0,1.213-0.159,1.619-0.476
		c0.405-0.318,0.608-0.794,0.608-1.429c0-1.234-0.825-1.851-2.474-1.851H268.118z"/>
</g>
<g>
	<path fill="#605B5B" d="M300.544,65.118h-7.952l-10.729-13.711v13.711h-6.652V34.421h6.652v13.711l10.729-13.711h7.952
		L288.54,49.847L300.544,65.118z"/>
	<path fill="#605B5B" d="M359.681,65.162h-7.128l-6.352-10.438h-2.276v10.438h-6.652V34.62h11.204c3.102,0,5.728,0.967,7.928,2.878
		c2.201,1.934,3.276,4.264,3.276,6.966v0.286c0,4.131-2.275,7.185-6.803,9.141L359.681,65.162z M347.826,49.034
		c1.301,0,2.451-0.439,3.427-1.318c0.975-0.856,1.45-1.89,1.45-3.12c0-1.209-0.476-2.219-1.45-3.032
		c-0.976-0.835-2.126-1.23-3.427-1.23h-3.901v8.701H347.826z"/>
	<path fill="#605B5B" d="M383.684,65.118h-19.007V34.421h19.007v5.713h-12.505v6.855h12.505v5.56h-12.505v6.855h12.505V65.118z"/>
	<path fill="#605B5B" d="M422.319,65.118h-7.003l-2.601-6.284h-14.28l-2.927,6.284h-6.827l13.479-30.696h6.678l0.15,0.439
		l-3.401,7.713l-4.727,10.547h9.428l-2.275-4.988l3.427-7.712L422.319,65.118z"/>
	<path fill="#605B5B" d="M317.111,33.419c-8.959,0-16.222,7.262-16.222,16.221c0,8.958,7.263,16.221,16.222,16.221
		c8.957,0,16.221-7.263,16.221-16.221C333.332,40.681,326.068,33.419,317.111,33.419z M317.111,59.912
		c-5.674,0-10.271-4.6-10.271-10.271c0-5.674,4.598-10.271,10.271-10.271c5.672,0,10.271,4.598,10.271,10.271
		C327.383,55.312,322.783,59.912,317.111,59.912z"/>
</g>
<g>
</g>
<g>
</g>
<g>
</g>
<g>
</g>
<g>
</g>
<g>
</g>
</svg>
